<?xml version="1.0" encoding="utf-8"?>
<!-- Generator: Adobe Illustrator 19.2.1, SVG Export Plug-In . SVG Version: 6.00 Build 0)  -->
<svg version="1.1" id="Layer_1" xmlns="http://www.w3.org/2000/svg" xmlns:xlink="http://www.w3.org/1999/xlink" x="0px" y="0px"
	 viewBox="0 0 32 32" style="enable-background:new 0 0 32 32;" xml:space="preserve">
<style type="text/css">
	.st0{fill:#f97051;}
</style>
<g>
	<path class="st0" d="M16,27c-6,0-10.9-4.9-10.9-10.9S10,5.2,16,5.2s10.9,4.9,10.9,10.9S22,27,16,27z M24.8,17.5
		c-0.3-0.1-2.8-0.8-5.5-0.4c1.2,3.2,1.7,5.8,1.8,6.4C23,22.1,24.4,20,24.8,17.5z M19.4,24.3c-0.2-0.8-0.7-3.5-1.9-6.8c0,0,0,0-0.1,0
		c-5,1.8-6.8,5.2-7,5.5c1.5,1.2,3.4,1.8,5.5,1.8C17.3,25.1,18.4,24.8,19.4,24.3z M9.4,22.1c0.2-0.3,2.7-4.4,7.2-5.9
		c0.1,0,0.3-0.1,0.3-0.1c-0.3-0.5-0.5-1-0.8-1.5c-4.4,1.3-8.7,1.3-9.1,1.3c0,0.1,0,0.2,0,0.3C7.1,18.4,7.9,20.5,9.4,22.1z M7.3,14.3
		c0.4,0,4.1,0,8.2-1.1c-1.5-2.6-3.1-4.9-3.3-5.1C9.7,9.2,7.9,11.6,7.3,14.3z M13.9,7.5c0.3,0.3,1.8,2.5,3.4,5.2
		c3.2-1.2,4.5-3,4.7-3.2c-1.6-1.4-3.6-2.3-5.9-2.3C15.2,7.2,14.6,7.3,13.9,7.5z M22.9,10.5c-0.2,0.3-1.7,2.2-5,3.5
		c0.2,0.4,0.4,0.8,0.6,1.3c0.1,0.2,0.2,0.3,0.2,0.4c2.9-0.3,5.9,0.3,6.2,0.3C24.9,13.9,24.1,12,22.9,10.5z"/>
</g>
</svg>
