<?xml version="1.0" standalone="no"?>
<!DOCTYPE svg PUBLIC "-//W3C//DTD SVG 20010904//EN"
 "http://www.w3.org/TR/2001/REC-SVG-20010904/DTD/svg10.dtd">
<svg version="1.0" xmlns="http://www.w3.org/2000/svg"
 width="220.000000pt" height="220.000000pt" viewBox="0 0 220.000000 220.000000"
 preserveAspectRatio="xMidYMid meet">
<metadata>
Created by potrace 1.11, written by Peter Selinger 2001-2013
</metadata>
<g transform="translate(0.000000,220.000000) scale(0.100000,-0.100000)"
fill="#000000" stroke="none">
<path d="M770 1766 l-315 -93 -3 -345 -2 -345 322 -349 c177 -192 325 -349
328 -349 3 0 151 157 328 349 l322 349 -2 345 -3 345 -319 94 c-176 51 -324
93 -330 92 -6 0 -153 -42 -326 -93z m600 -56 c135 -39 260 -76 278 -81 l32
-11 0 -304 0 -304 -286 -310 c-157 -170 -290 -310 -294 -310 -4 0 -137 140
-294 310 l-286 310 0 305 0 304 53 16 c28 8 158 46 287 84 129 38 242 68 250
66 8 -2 125 -36 260 -75z"/>
<path d="M1025 1521 c-88 -27 -193 -58 -233 -70 -70 -21 -73 -24 -98 -72 -22
-45 -23 -50 -7 -45 127 39 156 47 160 42 3 -2 -33 -88 -80 -189 l-85 -185 42
-48 42 -48 59 140 c32 76 81 193 109 258 l51 119 88 26 c86 25 88 27 107 70
11 24 20 45 20 47 0 7 -12 4 -175 -45z"/>
<path d="M1310 1439 c-107 -32 -211 -63 -230 -69 -29 -8 -40 -19 -58 -55 -12
-25 -22 -47 -22 -50 0 -2 30 5 67 16 37 10 68 17 70 15 2 -1 -12 -37 -31 -78
-27 -59 -40 -77 -60 -82 -17 -4 -33 -20 -46 -46 -25 -49 -25 -54 0 -47 11 3
20 3 20 0 0 -3 -27 -66 -60 -140 -65 -145 -65 -145 -11 -197 l30 -29 16 34 c8
19 48 110 88 204 82 190 63 171 215 216 67 19 74 24 93 61 11 22 18 42 16 45
-3 2 -46 -8 -96 -23 -50 -15 -94 -25 -97 -22 -7 7 44 129 59 144 7 6 56 23
110 39 l98 28 25 49 c16 32 20 48 12 47 -7 0 -101 -27 -208 -60z"/>
</g>
</svg>
