<?xml version="1.0" encoding="utf-8"?>
<!-- Generator: Adobe Illustrator 19.2.1, SVG Export Plug-In . SVG Version: 6.00 Build 0)  -->
<svg version="1.1" id="Layer_1" xmlns="http://www.w3.org/2000/svg" xmlns:xlink="http://www.w3.org/1999/xlink" x="0px" y="0px"
	 viewBox="0 0 32 32" style="enable-background:new 0 0 32 32;" xml:space="preserve">
<style type="text/css">
	.st0{fill:#ffd42d;}
</style>
<g>
	<path class="st0" d="M13.7,15.2c0.7-0.4,2.1-1.2,2.1-3.7c0-3.1-2.2-4.8-5.6-4.8H1.3v18.5h8.3c2.4,0,4.1-0.5,5.2-1.6
		c1.1-1.1,1.6-2.4,1.6-4c0-3.6-2.8-4.4-2.8-4.4L13.7,15.2z M8.9,9.9c2.2,0,3.2,0.4,3.2,2c0,1.4-0.9,2.1-2.7,2.1H5.6V9.9H8.9z
		 M5.6,22v-4.9h4c2,0,3,0.8,3,2.3c0,1.7-0.8,2.6-3,2.6H5.6z M30.6,18.3c0-4.5-2.4-7.1-6.5-7.1c-3.9,0-6.5,2.5-6.5,7.1
		c0,4.4,2.6,6.9,6.6,6.9c1.6,0,2.9-0.3,4.1-1.1c1.1-0.8,1.9-1.9,2.2-3.1h-3.5l-0.2,0.4c-0.3,0.5-1.2,1.1-2.4,1.1
		c-1.8,0-3.2-1.2-3.3-3.3h9.5V18.3z M21.1,16.8c0.2-1.6,1.2-2.8,3-2.8c1.7,0,2.9,1.2,2.9,2.8H21.1z M28.1,9.2V6.7h-8.6v2.5H28.1z"/>
</g>
</svg>
