<?xml version="1.0" encoding="utf-8"?>
<!-- Generator: Adobe Illustrator 19.2.1, SVG Export Plug-In . SVG Version: 6.00 Build 0)  -->
<svg version="1.1" id="Layer_1" xmlns="http://www.w3.org/2000/svg" xmlns:xlink="http://www.w3.org/1999/xlink" x="0px" y="0px"
	 viewBox="0 0 14.7 14.7" style="enable-background:new 0 0 14.7 14.7;" xml:space="preserve">
<style type="text/css">
	.st0{fill:#FFFADE;}
</style>
<g>
	<path class="st0" d="M7.4,0C3.3,0,0,3.3,0,7.3c0,4.1,3.3,7.3,7.3,7.3c4.1,0,7.3-3.3,7.3-7.3C14.7,3.3,11.4,0,7.4,0z M7.3,13.1
		c-3.2,0-5.7-2.6-5.7-5.8c0-3.2,2.5-5.8,5.7-5.8c3.2,0,5.7,2.6,5.7,5.8C13.1,10.5,10.5,13.1,7.3,13.1z"/>
	<path class="st0" d="M10.6,5.7C10.6,4,9.6,3.4,8,3.4l-3.5,0l0,7.8l1.6,0l0-3l0.9,0l1.8,3l1.9,0L8.9,8C10,7.7,10.6,6.9,10.6,5.7z
		 M7.6,6.7l-1.4,0l0-1.9l1.4,0c0.9,0,1.4,0.2,1.4,0.9C8.9,6.5,8.5,6.7,7.6,6.7z"/>
</g>
</svg>
