<svg version="1.1" id="Layer_1" xmlns="http://www.w3.org/2000/svg" xmlns:xlink="http://www.w3.org/1999/xlink" x="0px" y="0px"
   viewBox="0 0 340 170" style="enable-background:new 0 0 340 170;" xml:space="preserve">
  <defs>
    <style>
      .cls-1 {
        fill: #53585f;
      }
    </style>
  </defs>
  <title>arts-council</title>
  <g>
    <path class="cls-1" d="M201.45,58.28l5.74-5.46L209,54.46c-2.87,2.73-5.67,5.46-8.52,8.19l-1.19-1.24c-.28-.32-.57-.63-.87-.92a.34.34,0,0,1-.07-.46q1.71-3.78,3.37-7.57a.76.76,0,0,0,.09-.42l-5.89,5.67-1.72-1.55c.56-.6,1.06-1.16,1.6-1.69l6.36-6.14c.49-.47.38-.51.9,0s1.11,1.16,1.67,1.72c.16.16.08.28,0,.42-.85,2-1.71,4-2.56,6-.26.59-.5,1.19-.76,1.79h.07"/>
    <path class="cls-1" d="M194.19,42.33l2.43,1.25c-.23.47-.45.92-.69,1.36-1,2-2.06,4.1-3.15,6.05a3.4,3.4,0,0,1-2.47,1.8,4.69,4.69,0,0,1-4.19-1.36,3.49,3.49,0,0,1-.93-4.1c.59-1.43,1.36-2.73,2-4.18.52-1,1.06-2.07,1.58-3.12.13-.26.26-.31.51-.18l2.16,1c-.29.56-.58,1.1-.84,1.65-.93,1.81-1.85,3.63-2.73,5.46a3.37,3.37,0,0,0-.3,1.2,1.09,1.09,0,0,0,.67,1.16,1.37,1.37,0,0,0,1.57,0,2.37,2.37,0,0,0,.68-.83c1-1.94,2-3.91,3-5.86.23-.44.45-.89.71-1.36"/>
    <path class="cls-1" d="M145.28,47.43c-.59.3-1.14.53-1.64.82a2.55,2.55,0,0,0-.71.6,1.16,1.16,0,0,0-.25,1.46,1.37,1.37,0,0,0,1.5.65c.7-.16,1.37-.37,2.09-.52A3.52,3.52,0,0,1,150.52,53a4.17,4.17,0,0,1,.1.6,3.7,3.7,0,0,1-1.14,2.92,10,10,0,0,1-3.25,2.28L144.87,57l.83-.29a4,4,0,0,0,2-1.27,1.28,1.28,0,0,0,0-1.82l-.12-.11a1.47,1.47,0,0,0-1.37-.23c-.52.1-1,.29-1.54.37a8.36,8.36,0,0,1-1.72.17A3.09,3.09,0,0,1,140.48,52a3.33,3.33,0,0,1,.55-4.1,9.39,9.39,0,0,1,2.85-2h.28c.39.5.76,1,1.12,1.52"/>
    <path class="cls-1" d="M207.91,71.44l-2.08,1.12c-.13-.16-.28-.34-.42-.53a7.91,7.91,0,0,1-1.72-3.52,4.94,4.94,0,0,1,1.3-4.33,7.28,7.28,0,0,1,5.35-2.5,4.93,4.93,0,0,1,4.7,2.91,6.54,6.54,0,0,1,.8,2.73.36.36,0,0,1-.13.31c-.59.28-1.19.52-1.83.78a6.37,6.37,0,0,0-.13-1.1,3.86,3.86,0,0,0-.91-2,2.64,2.64,0,0,0-2.39-.9,5.3,5.3,0,0,0-3.55,1.81,2.93,2.93,0,0,0-.22,3.73c.36.52.81,1,1.23,1.48"/>
    <path class="cls-1" d="M165.79,39.51a4.83,4.83,0,0,0-2.2-.14,2.72,2.72,0,0,0-2.46,2.55,5.09,5.09,0,0,0,.7,3.47,3,3,0,0,0,4,1.36l.16-.09c.44-.2.85-.48,1.37-.74.2.74.41,1.37.57,2.16,0,.08-.18.26-.31.33a8.92,8.92,0,0,1-3.85,1A4.87,4.87,0,0,1,160.5,48a6.25,6.25,0,0,1-1.65-2.55,7.38,7.38,0,0,1-.27-4.62A5.06,5.06,0,0,1,163,37.25a19.14,19.14,0,0,0,2.11-.08.38.38,0,0,1,.41.35h0l.34,1.92"/>
    <path class="cls-1" d="M135.17,53.82l1.48,1.06c.17.12.19.25,0,.44-.41.57-.79,1.17-1.23,1.8l7.86,5.64L141.73,65l-7.92-5.46-1.49,2.06-1.71-1.2c1.5-2.16,3-4.29,4.51-6.49"/>
    <path class="cls-1" d="M206.78,90.34c.16-2.31.32-4.48.49-6.73l11.7.82c0,.91-.12,1.8-.19,2.73L216.05,87l-6.37-.41c-.49,0-.5,0-.54.49l-.21,2.85c0,.34-.17.45-.5.44s-1.07,0-1.63,0"/>
    <path class="cls-1" d="M187.29,114.25c.38-.25.71-.48,1.05-.67a.5.5,0,0,1,.36.11L194,117l3.53,2.18.63.36.07-.07-5.6-8.66.77-.5c.5.75,1,1.46,1.44,2.18q2.38,3.65,4.74,7.29c.25.39.24.4-.12.67l-.11.07a.92.92,0,0,1-1.19,0c-2.84-1.77-5.72-3.51-8.59-5.27l-.51-.31V115l5.54,8.62-.81.51-6.4-9.9"/>
    <path class="cls-1" d="M150,112.16l-5.71,8.39c-.26-.21-.49-.37-.75-.55l6.58-9.82c.34.27.66.52,1,.81a.53.53,0,0,1,0,.35c-.33,2.26-.67,4.49-1,6.73l-.62,4.1a.27.27,0,0,0,.07.16q2.89-4.29,5.76-8.58h.08c.74.46.77.46.28,1.18l-5.93,8.74c-.18.28-.31.29-.59.13-.72-.47-.71-.46-.58-1.37.45-2.94.87-5.89,1.29-8.83.09-.51.15-1,.22-1.52H150"/>
    <path class="cls-1" d="M218.49,77.22l-3.67.68-7.48,1.37c-.35.07-.47,0-.51-.36-.09-.6-.22-1.2-.31-1.8s0-.45.39-.53l7.55-1.37c1-.17,2-.33,3.08-.52.3,0,.46,0,.53.35.12.72.27,1.44.42,2.22"/>
    <path class="cls-1" d="M165.87,119.13l-.66-.51a3.87,3.87,0,0,0-5.45.43c-.09.12-.19.24-.27.36a7,7,0,0,0-1.2,3.21,6,6,0,0,0,.15,2.47,3.84,3.84,0,0,0,4.1,2.62.32.32,0,0,0,.2-.16.44.44,0,0,1,.08-.25l1-3.61-1.5-.44c-.49-.15-.59-.42-.32-.89a.34.34,0,0,1,.25-.09l2.58.72c.25,0,.16.23.12.37-.37,1.36-.75,2.73-1.13,4.09-.1.35-.18.69-.3,1a.34.34,0,0,1-.22.23,5.45,5.45,0,0,1-5.17-1.84,4.89,4.89,0,0,1-1-3,7.38,7.38,0,0,1,1.79-5.46,5,5,0,0,1,7-.48c.19.15.28.29.15.54a4.8,4.8,0,0,0-.23.67"/>
    <path class="cls-1" d="M146.66,108c-.85-1-1.68-2-2.53-3l-3,2.53c-.16.14-.09.26,0,.38l1.14,1.44,1,1.25-.69.63-1.12-1.37-1.12-1.28c-.1-.12-.21-.2-.36,0l-3.29,2.73v.11c.83,1,1.69,2.08,2.57,3.14l-.7.63-.89-1c-.71-.86-1.36-1.72-2.13-2.55-.2-.25-.19-.41,0-.61l3.15-2.73,5.18-4.37c.22-.19.37-.19.56,0l2.73,3.21c.22.26.2.45-.08.63l-.37.27"/>
    <path class="cls-1" d="M175.19,128.77v.9h-4.8V118h1v10.37c0,.33.08.42.41.41h3.38"/>
    <path class="cls-1" d="M136.57,88.33c0-.23-.09-.3-.29-.35-.73-.18-1.37-.4-2.15-.59a.31.31,0,0,1-.3-.32h0c0-1.06,0-2.14-.06-3.2a.32.32,0,0,1,.28-.37h0c.51-.14,1-.3,1.49-.47.77-.23.78-.24.75-1s0-1.28-.07-2l-.42.12-7.69,2.73c-1.14.43-2.3.82-3.45,1.23v2a5.09,5.09,0,0,0,.09,1.15l11.8,3.5V88.4M131.79,87l-4.74-1.26v-.11l4.74-1.36Z"/>
    <path class="cls-1" d="M134.34,71.33h4.27l.82-2.6h-5a1.36,1.36,0,0,0-1.37.71H133v-.21a2.95,2.95,0,0,0-5.76-.94c-.48,1.26-.88,2.54-1.3,3.81-.08.27-.17.55-.23.83L126,73l4.74,1.63,5.76,1.89c.2,0,.37.1.46-.15.26-.76.54-1.53.81-2.32l-4.56-1.5c.09-.22.18-.38.24-.56a1,1,0,0,1,.92-.64m-2.73-.57a6.48,6.48,0,0,1-.27,1.05.39.39,0,0,1-.28.15l-2.73-.88c.15-.41.27-.76.42-1.1a1.38,1.38,0,0,1,1.63-.88,1.53,1.53,0,0,1,1.23,1.66"/>
    <path class="cls-1" d="M181.6,41.79a5.59,5.59,0,0,0-.89-3A4.87,4.87,0,0,0,175.37,37a4.32,4.32,0,0,0-3,2.63,9.2,9.2,0,0,0-.71,5.15A4.53,4.53,0,0,0,175.94,49a4.39,4.39,0,0,0,4.62-2.3,8.69,8.69,0,0,0,1.08-4.35v-.46m-3.44,3.68a6.29,6.29,0,0,1-.37.67,1.75,1.75,0,0,1-1.75.78,1.56,1.56,0,0,1-1.36-1.14,14.25,14.25,0,0,1-.5-2.05h.1a9.42,9.42,0,0,1,.64-3.48,3.64,3.64,0,0,1,.57-1,1.69,1.69,0,0,1,2.37-.22,1.91,1.91,0,0,1,.37.43,3.15,3.15,0,0,1,.53,1.51,9.47,9.47,0,0,1-.64,4.41"/>
    <path class="cls-1" d="M207.31,107.23a8.41,8.41,0,0,0-3.8-3.25,4.19,4.19,0,0,0-4.84.82,28.29,28.29,0,0,0-2,2.23,1.35,1.35,0,0,0-.19.33l9.25,7.3c.59-.86,1.23-1.65,1.73-2.53a4.61,4.61,0,0,0-.14-4.9m-.81,4.69c-.2.34-.45.64-.67,1a.29.29,0,0,1-.38.18.26.26,0,0,1-.13-.1l-2.18-1.63-5.06-4-.22-.18a4.11,4.11,0,0,1,3.93-2.51,5.16,5.16,0,0,1,1.76.59,7.16,7.16,0,0,1,2.94,2.65,3.63,3.63,0,0,1,0,4.09"/>
    <path class="cls-1" d="M188.25,126.17,182,117c-.38-.58-.38-.56-1-.36a.41.41,0,0,0-.36.44c0,1-.11,1.91-.15,2.87l-.33,7.73v1.5c.25-.07.47-.15.69-.19s.24-.15.24-.33c0-.93.08-1.84.11-2.73a.43.43,0,0,1,.37-.49l3.95-1.16c.21-.07.3,0,.39.17.56.86,1.13,1.72,1.74,2.63l.95-.35-.31-.5m-7.08-1.72c.07-2.27.14-4.47.2-6.65h.15c1.17,1.83,2.36,3.66,3.6,5.57l-4,1.12"/>
  </g>
</svg>
