<svg version="1.1" id="Layer_1" xmlns="http://www.w3.org/2000/svg" xmlns:xlink="http://www.w3.org/1999/xlink" x="0px" y="0px"
   viewBox="0 0 340 170" style="enable-background:new 0 0 340 170;" xml:space="preserve">
  <defs>
    <style>
      .cls-1 {
        fill: #53585f;
      }
    </style>
  </defs>
  <title>chrome</title>
  <path class="cls-1" d="M115,89.34l1.26-3.27V82.86l-4.52-1.13-1.32-3,1-1.81.92-.33,1,.42.66.84.86-.57-1.08-.93.77-.47.74,1.07,1.5-.7.3-.33-.28-.8-.09-.87-.8-1.51v-.84L114.09,70l-2.87.21.42-1.23-.83-.76-3.68.92,1.63,2.47-.54.31-1.93-2.31-1.78,1.82,1.93,2-.36.44-2-1.94-1,1.76L105,75.4l-.27.48L103,74.38l-.47,1.5,1.6,1.1-.23.55-1.5-1-.14,1.23,1.33.56-.2.5-1.1-.52v1l2.49.31,3.34.46,2.19,1.66L110,84.56l-1.3.44-.37-.44,1.16-.43.12-2-1.72-1.27-3.16-.42-2.63-.29-.85-.9-1-5.52-2.68-3.19-2.71-4.91-1.9,8,3.72,1.17-.2.53-3.61-1L94.08,79l3.15,1,.2.75-3.3-.89,1.17,4.43,2.64-.37.33.51-2.59.51,1.7,2.41,2.34-1.13.44.36-2.37,1.28,1.78,1.37,1.84-1.5.51.33-1.64,1.51,2,.63L103.34,89l.51.24-.94,1.27,1.24.44,1.79-1.86.45.26-2.06,2.15-5-1.73-2.73,3L95.3,98l.47,6.34H107.1V103h.55v1.38H108V103h.54v1.38H109v-2.47h-4.52l-.54-.07,1.72-2.88.6-2.92-1.64-.35-1.06.21-.13-.5,1.19-.22,2.27.42,3.6-1.42,1.3,1.39,1.52,8.63h3.26v-1.07h.52v1.07h.39v-1.07H118v1.07h.32v-2.47h-2.86Zm-.48-16.5a.53.53,0,0,1,.55.53.52.52,0,0,1-.52.55.54.54,0,0,1-.56-.52v0a.55.55,0,0,1,.53-.53m105.92-.18-5.7,13.21L209,72.24v-4.4h-5.77v36.48H209V87.58l3.63,8.71h4.27l3.56-8.58v16.58h5.83V67.84h-5.83ZM122.52,104.3h16.8V95.86h-5.77v2.48h-5.2V73.86h5.27v2.93h5.78v-9H122.5ZM247.18,76.74v-8.9H230.31v15h-1.93v6h1.93V104.3h16.8V95.89h-5.74v2.48h-5.29V88.83h9.35v-6h-9.35V73.86h5.29v2.93Zm-63.89,27.59h16.8V67.84h-16.8Zm5.77-30.47h5.26V98.38h-5.26ZM153.35,82.8h-5.11v-15h-5.77v15h-1.94v6h1.94V104.3h5.77V88.84h5.11v15.48h5.77V67.84h-5.77Zm23,5.47,3.46-3.87V67.82H163v15h-1.87v6H163v15.48h5.77V88.92h2.11l5.15,15.4h4.52V100.9Zm-2.31-5.39h-5.26v-9h5.26Z"/>
</svg>
