<?xml version="1.0" encoding="utf-8"?>
<!-- Generator: Adobe Illustrator 19.2.1, SVG Export Plug-In . SVG Version: 6.00 Build 0)  -->
<svg version="1.1" id="Layer_1" xmlns="http://www.w3.org/2000/svg" xmlns:xlink="http://www.w3.org/1999/xlink" x="0px" y="0px"
	 viewBox="0 0 340 170" style="enable-background:new 0 0 340 170;" xml:space="preserve">
<style type="text/css">
	.st0{fill:#53585F;}
</style>
<g>
	<path class="st0" d="M156.2,90.2c0,7.7-6,13.3-13.4,13.3c-7.4,0-13.4-5.7-13.4-13.3c0-7.7,6-13.3,13.4-13.3
		C150.2,76.9,156.2,82.5,156.2,90.2z M150.4,90.2c0-4.8-3.5-8.1-7.5-8.1c-4,0-7.5,3.3-7.5,8.1c0,4.8,3.5,8.1,7.5,8.1
		C146.9,98.3,150.4,95,150.4,90.2z"/>
	<path class="st0" d="M185.1,90.2c0,7.7-6,13.3-13.4,13.3c-7.4,0-13.4-5.7-13.4-13.3c0-7.7,6-13.3,13.4-13.3
		C179.1,76.9,185.1,82.5,185.1,90.2z M179.2,90.2c0-4.8-3.5-8.1-7.5-8.1c-4,0-7.5,3.3-7.5,8.1c0,4.8,3.5,8.1,7.5,8.1
		C175.8,98.3,179.2,95,179.2,90.2z"/>
	<path class="st0" d="M212.7,77.7v24c0,9.9-5.8,13.9-12.7,13.9c-6.5,0-10.3-4.3-11.8-7.9l5.1-2.1c0.9,2.2,3.1,4.7,6.7,4.7
		c4.4,0,7.1-2.7,7.1-7.8v-1.9H207c-1.3,1.6-3.8,3-7,3c-6.7,0-12.8-5.8-12.8-13.3c0-7.5,6.1-13.4,12.8-13.4c3.2,0,5.7,1.4,7,3h0.2
		v-2.2L212.7,77.7L212.7,77.7z M207.6,90.3c0-4.7-3.1-8.1-7.1-8.1c-4,0-7.4,3.4-7.4,8.1c0,4.6,3.4,8,7.4,8
		C204.5,98.3,207.6,94.9,207.6,90.3z"/>
	<path class="st0" d="M221.9,63.7v39.1h-5.7V63.7H221.9z"/>
	<path class="st0" d="M244.1,94.6l4.5,3c-1.5,2.2-5,5.9-11.1,5.9c-7.6,0-13.2-5.9-13.2-13.3c0-7.9,5.7-13.3,12.6-13.3
		c6.9,0,10.3,5.5,11.4,8.5l0.6,1.5l-17.8,7.4c1.4,2.7,3.5,4,6.5,4C240.5,98.3,242.6,96.9,244.1,94.6L244.1,94.6z M230.1,89.8l11.9-5
		c-0.7-1.7-2.6-2.8-4.9-2.8C234.1,82.1,230,84.7,230.1,89.8z"/>
	<path class="st0" d="M107.9,86.8v-5.7H127c0.2,1,0.3,2.2,0.3,3.4c0,4.2-1.2,9.5-4.9,13.2c-3.6,3.8-8.3,5.8-14.4,5.8
		c-11.4,0-21-9.3-21-20.7c0-11.4,9.6-20.7,21-20.7c6.3,0,10.8,2.5,14.2,5.7l-4,4c-2.4-2.3-5.7-4-10.2-4c-8.3,0-14.8,6.7-14.8,15.1
		c0,8.3,6.5,15.1,14.8,15.1c5.4,0,8.5-2.2,10.4-4.1c1.6-1.6,2.6-3.9,3.1-7L107.9,86.8z"/>
</g>
</svg>
