<svg version="1.1" id="Layer_1" xmlns="http://www.w3.org/2000/svg" xmlns:xlink="http://www.w3.org/1999/xlink" x="0px" y="0px"
   viewBox="0 0 340 170" style="enable-background:new 0 0 340 170;" xml:space="preserve">
  <defs>
    <style>
      .cls-1 {
        fill: #53585f;
      }
    </style>
  </defs>
  <title>nerd</title>
  <path class="cls-1" d="M93.67,108.53h5.76V84.08l-5.76-6.37v30.82m43-47.08v5.78h28.89V61.5Zm0,20.64V87.8h28.89V82.15Zm0,20.7v5.69h28.89v-5.65ZM244.31,75.86a24,24,0,0,0-5.52-7.47,26.4,26.4,0,0,0-8.16-5,26.82,26.82,0,0,0-10-1.85H210.09v5.73h10.52a20.86,20.86,0,0,1,7.62,1.38,19.82,19.82,0,0,1,6.27,3.83,17.71,17.71,0,0,1,4.16,5.66,16.6,16.6,0,0,1,0,13.89,17.75,17.75,0,0,1-4.16,5.67,19.76,19.76,0,0,1-6.27,3.81,20.66,20.66,0,0,1-7.62,1.39H210.09v5.7h10.52a26.86,26.86,0,0,0,18.18-6.89,24.11,24.11,0,0,0,5.52-7.45,21.8,21.8,0,0,0,0-18.35m-28,2.23A3.14,3.14,0,1,1,213.13,75h0A3.14,3.14,0,0,1,216.27,78h0m0,13.89a3.14,3.14,0,1,1-3.22-3.06h.08a3.14,3.14,0,0,1,3.14,3.06m-25.69,2.8h0l-1.07-1.21h-8.06l4.71,5.22h0l8.72,9.76h8.05L190.6,94.71m-1.75-33.27H173.41v5.79h15.37a7.48,7.48,0,0,1,0,15H173.41v5.7h15.51a13.18,13.18,0,0,0,0-26.35m-65.75,0V94.06L93.67,61.5v8.11l35.18,38.87v-47H123.1"/>
</svg>
