<?xml version="1.0" encoding="utf-8"?>
<!-- Generator: Adobe Illustrator 19.2.1, SVG Export Plug-In . SVG Version: 6.00 Build 0)  -->
<svg version="1.1" id="Layer_1" xmlns="http://www.w3.org/2000/svg" xmlns:xlink="http://www.w3.org/1999/xlink" x="0px" y="0px"
	 viewBox="0 0 340 170" style="enable-background:new 0 0 340 170;" xml:space="preserve">
<style type="text/css">
	.st0{fill:#53585F;}
</style>
<g>
	<path class="st0" d="M169.7,125.8L169.7,125.8l44.5-25.4l0,0V50.3l-89,0h-0.1l0,50.1L169.7,125.8L169.7,125.8z M127.7,52.7l84.1,0
		v27.1h-84.1V52.7z M127.7,82.2h84.1V99l-42,24l-42.1-24V82.2z"/>
	<path class="st0" d="M164.6,68.3h7.3l-3.5-7.3L164.6,68.3z"/>
	<path class="st0" d="M211.8,52.7l-84.1,0v27.1h84.1V52.7z M148.2,76.6H142V60.2h-8.7v-4.4h23.7v4.4h-8.7V76.6z M176,76.6l-2.2-4.1
		h-10.9l-2.1,4.1h-6.3l10.3-20.7h7.1l10.5,20.7H176z M189.9,75.7c-3.8-1.4-6.1-4.8-6.6-8.1c-0.5-4,1.3-7.6,5.1-10
		c4.4-2.7,11.4-2.6,16.3-0.7v4.5C201,60,195.5,58.8,192,61c-2.5,1.6-3.3,4.3-2.7,6.9c0.5,2.1,2.6,3.9,4.9,4.6
		c1.6,0.4,3.6,0.6,5.5,0.4v-3.3l-2.4,0v-4h7.9l0,10.7C200.4,77.1,194.3,77.4,189.9,75.7z"/>
	<path class="st0" d="M205.4,89.9v-1.4c0-0.2-0.2-0.4-0.4-0.4h-5.5v3.6l5.4-1.2C205.4,90.4,205.4,90.3,205.4,89.9z"/>
	<path class="st0" d="M211.8,99V82.2h-84.1V99l42.1,24L211.8,99z M196.6,85.4c0-0.1,0.1-0.2,0.2-0.2h10.1c0,0,0.1,0,0.1,0
		c0.7,0,1.2,0.4,1.3,1.1l0,4.7c0,1-0.1,1.4-1.1,1.6l-2.9,0.7l4,3.4c0,0,0,0.1,0,0.1c0,0,0,0.1-0.1,0.1l-2.4,1.4c-0.1,0-0.2,0-0.2,0
		l-4.6-4.1l-1.6,0.4v7.4c0,0,0,0,0,0l-2.7,1.5c0,0-0.1,0-0.2,0c0,0-0.1-0.1-0.1-0.1V85.4z M181.9,85.4c0-0.1,0.1-0.2,0.2-0.2h9.4
		c0.1,0,0.2,0.1,0.2,0.2V88c0,0.1-0.1,0.2-0.2,0.2h-6.4v6.7l5.8-1.3c0,0,0.1,0,0.1,0c0,0,0.1,0.1,0.1,0.1v2.8c0,0.1-0.1,0.1-0.1,0.1
		l-5.9,1.5v8.5l6.3-3.4c0,0,0.1,0,0.2,0c0.1,0,0.1,0.1,0.1,0.1v2.9c0,0.1,0,0.1-0.1,0.1l-9.4,5.4c0,0-0.1,0-0.2,0
		c0,0-0.1-0.1-0.1-0.1V85.4z M143.3,103.6c0,0.1,0,0.1-0.1,0.1c0,0-0.1,0-0.2,0l-2.6-1.5c0,0-0.1-0.1-0.1-0.1v-7.4l-6.3-1.6v5.3
		c0,0.1,0,0.1-0.1,0.1c0,0-0.1,0-0.2,0l-2.6-1.5c0,0-0.1-0.1-0.1-0.1l0-11.5c0,0,0-0.1,0-0.1c0,0,0.1,0,0.1,0h2.6
		c0.1,0,0.2,0.1,0.2,0.2v5.1l6.3,1.4v-6.4c0-0.1,0.1-0.2,0.2-0.2h2.6c0.1,0,0.2,0.1,0.2,0.2V103.6z M158.2,88c0,0.1-0.1,0.2-0.1,0.2
		h-6.4v6.1l5.7,1.3c0.1,0,0.1,0.1,0.1,0.1v3.2c0,0.1-0.1,0.2-0.1,0.2l-5.8-1.5v7.7l6.4,3.5c0.1,0,0.1,0.1,0.1,0.1v3.2
		c0,0.1,0,0.1-0.1,0.1c0,0-0.1,0-0.1,0l-9.4-5.4c0,0-0.1-0.1-0.1-0.1V85.4c0-0.1,0.1-0.2,0.1-0.2h9.5c0.1,0,0.1,0.1,0.1,0.2V88z
		 M162.9,115.1c-0.1,0-0.1-0.1-0.1-0.1V85.4c0,0,0-0.1,0-0.1c0,0,0.1,0,0.1,0h3c0.1,0,0.2,0.1,0.2,0.2v27.7l3.5,1.9l3.5-1.9V85.4
		c0-0.1,0.1-0.2,0.2-0.2h3c0.1,0,0.2,0.1,0.2,0.2v29.5c0,0.1,0,0.1-0.1,0.1l-6.7,3.8c-0.1,0-0.1,0-0.2,0L162.9,115.1z"/>
</g>
</svg>
