<svg version="1.1" id="Layer_1" xmlns="http://www.w3.org/2000/svg" xmlns:xlink="http://www.w3.org/1999/xlink" x="0px" y="0px"
   viewBox="0 0 340 170" style="enable-background:new 0 0 340 170;" xml:space="preserve">
  <defs>
    <style>
      .cls-1 {
        fill: #53585f;
      }
    </style>
  </defs>
  <title>v76</title>
  <g>
    <path class="cls-1" d="M163.33,85.52l.33-.9V85l10.7-28.78H189l-30,62.86h2.25l10.63-22.28a22.7,22.7,0,0,0-.33,2.61c-.69,9.06,4.15,15.32,12.35,16h1.33c6.69,0,13.7-4,14.35-11.75.55-7.06-3.66-12.37-10.22-12.86a11.13,11.13,0,0,0-2.88.16v.35a7.56,7.56,0,0,1,5.87,2.63,13,13,0,0,1,3.23,9.33,10.81,10.81,0,0,1-10.16,10.53h-.72c-4.7-.35-9.45-3.91-8.77-13.09a30.37,30.37,0,0,1,13.7-22.86,46,46,0,0,1,5.6-3.55l2.08-1,1.35-.69h.15a.23.23,0,0,0,.24-.27v-.14h-.18a49.59,49.59,0,0,0-6.48,2.13,37.4,37.4,0,0,0-14.4,10l15.66-32.7.13-.18H176.05l10.12-27.17h-2.51L173.48,51.42H162.62l2,4.95h7.14L165.15,74l-18.6-49.68h-6.07Z"/>
    <path class="cls-1" d="M167.94,128.17a1.53,1.53,0,0,1-.88-.57V126a1.82,1.82,0,0,1,.18-.79,1.22,1.22,0,0,1,.39-.48.87.87,0,0,1,.53-.18.91.91,0,0,1,.55.18,1.31,1.31,0,0,1,.43.5,2.26,2.26,0,0,1,.19.89,2.64,2.64,0,0,1-.13,1.15,1.44,1.44,0,0,1-.51.74.91.91,0,0,1-.75.16m1.59-.33a2.05,2.05,0,0,0,.35-.71,2.54,2.54,0,0,0,.16-.82,2.51,2.51,0,0,0-.16-.9,1.88,1.88,0,0,0-.41-.66,1.72,1.72,0,0,0-.59-.44,1.56,1.56,0,0,0-.64-.13,1.61,1.61,0,0,0-.65.17,1.77,1.77,0,0,0-.51.51v-2.15a3.64,3.64,0,0,1-.66,0,2,2,0,0,1,0,.35v5.42h.68a.88.88,0,0,1,0-.23.49.49,0,0,1,0-.24,1.07,1.07,0,0,0,.26.26l.37.17a1.19,1.19,0,0,0,.53,0,1.3,1.3,0,0,0,.72-.19,1.86,1.86,0,0,0,.59-.49"/>
    <path class="cls-1" d="M171.19,129.09a1.08,1.08,0,0,1-.43.33.94.94,0,0,1-.62,0v.3a.29.29,0,0,0,0,.13h0a1.27,1.27,0,0,0,.43-.09,1.14,1.14,0,0,0,.41-.24,2.16,2.16,0,0,0,.37-.37,1.93,1.93,0,0,0,.29-.55l.42-1.08c.15-.37.29-.74.43-1.09s.29-.75.45-1.12a10.56,10.56,0,0,1,.52-1.07h-.56a.74.74,0,0,1,0,.21v.22c-.18.43-.36.84-.51,1.25s-.33.82-.49,1.25c-.13-.41-.28-.81-.45-1.21s-.33-.76-.49-1.16a1,1,0,0,1-.1-.29.62.62,0,0,1,0-.27h-.94a3.52,3.52,0,0,1,.39.68,8.12,8.12,0,0,1,.43.94l.42,1,.39,1a5,5,0,0,1-.2.54,1.72,1.72,0,0,1-.29.49"/>
    <path class="cls-1" d="M149.56,136.2c.26-.63.49-1.1.65-1.43h-1.06a8.31,8.31,0,0,1-.43,1.45q-.34,1-.84,2.19l-1.06,2.66c-.35,1-.7,2-1,2.94a16.32,16.32,0,0,1-.88-2l-.75-2c-.33-.88-.66-1.76-1-2.62s-.62-1.74-.9-2.66h-2c.17.33.39.74.6,1.23l.71,1.6.74,1.81c.26.6.51,1.21.75,1.82s.45,1.17.64,1.72l.53,1.41.49,1.33h1.43a2.94,2.94,0,0,1,.19-1c.14-.51.34-1.1.59-1.8s.51-1.41.82-2.21.61-1.57.9-2.31.59-1.43.86-2.06"/>
    <path class="cls-1" d="M150.6,141.74c1.35-3.33,2-5.09,2.08-5.31a13,13,0,0,0,.62,1.82c.34,1,.77,2.12,1.26,3.47h-3.92m5-1.33-1.06-2.9c-.35-1-.68-2-1-2.84H152.3a16.59,16.59,0,0,1-1.05,3.52c-.65,1.73-1.26,3.23-1.82,4.52a26.63,26.63,0,0,1-1.43,2.82h0a1.55,1.55,0,0,1,.43,0h.88a3.37,3.37,0,0,1,.16-.94,8.35,8.35,0,0,1,.35-1.07c.16-.41.33-.82.53-1.24h4.48c0,.1.22.55.51,1.39s.49,1.35.55,1.55v.31a9,9,0,0,1,1.8,0c-.33-.74-.69-1.56-1.06-2.44l-.94-2.74"/>
    <path class="cls-1" d="M167,134.71h-.75V135a6.76,6.76,0,0,1,0,.9v5.7a7.26,7.26,0,0,1-.17,1.68,2.59,2.59,0,0,1-.57,1,2.26,2.26,0,0,1-1,.55,5.74,5.74,0,0,1-1.37.14,4.86,4.86,0,0,1-1.2-.14,2.49,2.49,0,0,1-.94-.49,2.35,2.35,0,0,1-.6-.86,3.68,3.68,0,0,1-.22-1.31v-3.76a32.15,32.15,0,0,1,.22-3.8,8.24,8.24,0,0,1-1.72,0c.06,1.23.06,2.47,0,3.7V142a3.56,3.56,0,0,0,1,2.72,4.43,4.43,0,0,0,3.16.94,6.2,6.2,0,0,0,2-.29,3.15,3.15,0,0,0,1.29-.86,2.91,2.91,0,0,0,.65-1.3,6.76,6.76,0,0,0,.17-1.62v-7h-.17"/>
    <path class="cls-1" d="M178,140.76a1.85,1.85,0,0,1,0-.47h-1.77a1.49,1.49,0,0,1,.14.55v3.56a5.15,5.15,0,0,1-1.7.6,4,4,0,0,1-1.55,0,3.48,3.48,0,0,1-1.33-.6,4,4,0,0,1-1-1.1,4.79,4.79,0,0,1-.68-1.49,6.94,6.94,0,0,1-.24-1.82,6,6,0,0,1,.4-2.29,4.35,4.35,0,0,1,1-1.6,3.19,3.19,0,0,1,1.39-.9,3.31,3.31,0,0,1,1.59-.14,3.59,3.59,0,0,1,1.56.65,4.72,4.72,0,0,1,1.32,1.46,6,6,0,0,1,.43-.45,3.11,3.11,0,0,1,.33-.29,5.15,5.15,0,0,0-1.7-1.37,5.63,5.63,0,0,0-2-.59,6.09,6.09,0,0,0-2.12.26,4.87,4.87,0,0,0-1.85,1,5.38,5.38,0,0,0-1.34,1.82,6.28,6.28,0,0,0-.5,2.6,5.71,5.71,0,0,0,.43,2.31,5.27,5.27,0,0,0,1.19,1.76,5.1,5.1,0,0,0,1.74,1.12,5.9,5.9,0,0,0,2.12.39,7,7,0,0,0,1.82-.2,6.55,6.55,0,0,0,1.27-.43,6.08,6.08,0,0,0,1-.62v-3.82"/>
    <path class="cls-1" d="M187.58,134.69H187a22,22,0,0,1,0,2.82,12.78,12.78,0,0,0,0,2.15h-5.5v-4.91h-1.72a2.94,2.94,0,0,1,.11.78v10.08h1.63v-4.83a4.68,4.68,0,0,1,0-.53h5.64V145a5.42,5.42,0,0,1,0,.57h1.62a4.82,4.82,0,0,1,0-.76V134.65H187.7"/>
    <path class="cls-1" d="M199.69,145.3V134.69a2.81,2.81,0,0,1-.58,0h-.34v9.14c-.23-.29-.5-.67-.84-1.14l-1.05-1.52-1.18-1.74-1.17-1.8-1.1-1.71-.88-1.47h-.74a9.73,9.73,0,0,1-1.08,0,2.16,2.16,0,0,1,0,.36v.43a8.18,8.18,0,0,0,.12,1.62,11.66,11.66,0,0,1,0,2v6.56a4.27,4.27,0,0,1,1,0h0V145a9.84,9.84,0,0,1,0-1.33v-7.28l1.41,2.27c.51.79,1,1.59,1.57,2.37s1.08,1.59,1.62,2.39,1.12,1.54,1.69,2.27a6.46,6.46,0,0,1,.88,0h.68v-.12h0v-.19"/>
  </g>
</svg>
