<svg version="1.1" id="Layer_1" xmlns="http://www.w3.org/2000/svg" xmlns:xlink="http://www.w3.org/1999/xlink" x="0px" y="0px"
   viewBox="0 0 340 170" style="enable-background:new 0 0 340 170;" xml:space="preserve">
  <defs>
    <style>
      .cls-1 {
        fill: #53585f;
      }
    </style>
  </defs>
  <title>volcom</title>
  <path class="cls-1" d="M170.1,52.51,148.76,93.78,161,114.5h18.22l12.22-20.72Zm0,60.9h-8.51L150,93.8c1.37-2.58,20.07-38.88,20.07-38.88v4.39l9.21,30.26-9.13,19.16Zm1.29-4.37,9.8-20.48L187.73,95ZM152.58,95l16.29,14L159.1,88.56Zm17.55,13.76V59.26L161,89.57Zm0-62.76A39,39,0,1,0,209,85.13V85h0a38.92,38.92,0,0,0-38.86-39h0Zm0,75.27a36.28,36.28,0,1,1,36.11-36.45V85a36.22,36.22,0,0,1-36.14,36.3"/>
</svg>
