<svg version="1.1" id="Layer_1" xmlns="http://www.w3.org/2000/svg" xmlns:xlink="http://www.w3.org/1999/xlink" x="0px" y="0px"
   viewBox="0 0 340 170" style="enable-background:new 0 0 340 170;" xml:space="preserve">
  <defs>
    <style>
      .cls-1 {
        fill: #53585f;
      }
    </style>
  </defs>
  <title>Artboard 1</title>
  <g>
    <path class="cls-1" d="M71.57,84.3a3.41,3.41,0,0,1,2.65,2.13c3.19,5.85,6.39,12.35,9.49,18.71a2.93,2.93,0,0,0,2.92,0C88.09,102.35,92,94.82,93.7,91.9c2,3.61,5.33,10.23,6.7,13.24a2.93,2.93,0,0,0,2.92,0c2.74-6,5.72-12.16,8.77-17.94,1-2.07,1.46-2.63,3.64-3l.91-.18c.51-.51.38-1.74-.19-2-1.46.12-3.11.18-5,.18-1.63,0-3.18,0-5.33-.18-.64.23-.64,1.58-.24,2l1.09.22c1.11.24,1.63.51,1.63.81a7.08,7.08,0,0,1-.6,2.17c-1,2.62-2,5.38-3.63,8.64-1.46-2.7-3.23-6.36-4.38-9.07A4.73,4.73,0,0,1,99.46,85c0-.3.91-.57,2.4-.85l1-.18c.47-.22.51-1.91-.2-2-4.16.12-7.4.18-11.49.18H78c-2.72,0-4.79,0-7.47-.18-.66.28-.66,1.46-.2,2Zm14.74,0a17.06,17.06,0,0,1,3.11.21,3.64,3.64,0,0,1,2.41,2.93,5.67,5.67,0,0,1-.2,1.69,52.44,52.44,0,0,1-3.45,6.71c-1.1-1.79-3.7-6.87-4.59-8.85a5.56,5.56,0,0,1-.6-1.86c0-.62,1.24-.83,3.32-.83"/>
    <path class="cls-1" d="M125.79,105.55a12.75,12.75,0,0,0,11.37-6.43,1.46,1.46,0,0,0-1.58-1.33h-.11a6.69,6.69,0,0,1-6,2.92c-6,0-9.17-4.1-9.17-8.33,0-.89.14-1,1.64-1h12.45c2,0,2.34-.78,2.34-1.87,0-4.38-3.64-8.11-10.39-8.11-8.1,0-14,5.53-14,12.63,0,6.15,4.74,11.5,13.51,11.5m0-21.53a3,3,0,0,1,3.41,2.59,2.79,2.79,0,0,1,0,.5c0,.57-.13,1.14-.45,1.3a6,6,0,0,1-2.67.5h-2.4c-2.09,0-2.92,0-2.92-.84,0-1.81,2.33-4,5.07-4"/>
    <path class="cls-1" d="M138.64,84.3a3.44,3.44,0,0,1,2.66,2.13c3.17,5.85,6.37,12.35,9.47,18.71a2.17,2.17,0,0,0,1.46.41,2.12,2.12,0,0,0,1.46-.41c1.46-2.79,5.38-10.32,7.08-13.24,2,3.61,5.32,10.23,6.68,13.24a2.92,2.92,0,0,0,3,0c2.74-6,5.72-12.16,8.7-17.94,1-2.07,1.46-2.63,3.64-3l.91-.18c.51-.51.38-1.74-.19-2-1.46.12-3.12.18-5,.18-1.62,0-3.17,0-5.3-.18-.68.23-.68,1.58-.27,2l1.1.22c1.11.24,1.62.51,1.62.81a7.12,7.12,0,0,1-.58,2.17c-1,2.62-2.08,5.38-3.64,8.64-1.46-2.7-3.23-6.36-4.39-9.07A4.44,4.44,0,0,1,166.5,85c0-.3.9-.57,2.39-.85l1-.18c.46-.22.52-1.91-.2-2-4.14.12-7.4.18-11.49.18H145c-2.72,0-4.8,0-7.47-.18-.65.28-.65,1.46-.19,2Zm14.73,0a17.22,17.22,0,0,1,3.13.21,3.63,3.63,0,0,1,2.4,2.93,6.4,6.4,0,0,1-.19,1.69,57.38,57.38,0,0,1-3.45,6.71c-1.11-1.79-3.7-6.87-4.61-8.85a5.6,5.6,0,0,1-.58-1.86c0-.62,1.23-.83,3.3-.83"/>
    <path class="cls-1" d="M194.23,105.55c8,0,14.92-3.89,14.92-12.13,0-8-6.88-12-14.54-12s-15,4.38-14.94,12.51c.07,7.77,6.81,11.62,14.61,11.62m0-21.53c3.69,0,5.51,4.72,5.57,10.23,0,5.07-1.17,8.77-4.88,8.77s-5.85-4.39-5.85-10.23c0-6.14,2.36-8.68,5.22-8.68"/>
    <path class="cls-1" d="M220.21,86.25c.4,0,1,0,2.47,1.13a3.79,3.79,0,0,0,2.53,1c2.08,0,4.15-1.06,4.15-3.67a3.38,3.38,0,0,0-3.45-3.32h-.13c-2.72,0-4.59,1.85-6.35,2.8-.52-.1-.65-.28-.65-.67s.13-1.29.25-2.43a1.41,1.41,0,0,0-1.15-.51A47.3,47.3,0,0,1,208.39,84a1.24,1.24,0,0,0,0,1.7l.92.51c1.23.67,1.23,1.35,1.23,3.61v8.51c0,3.94-.26,4.38-2.41,4.63l-1.23.1a1.38,1.38,0,0,0,0,2l0,0c2.15-.12,5-.18,7.67-.18,3,0,5.64,0,8.77.18a1.38,1.38,0,0,0,0-2l0,0-2-.19c-2.14-.17-2.41-.62-2.41-4.57V89.72c0-2.14.32-3.39,1.24-3.39"/>
    <path class="cls-1" d="M245.62,102.77l-.83.19a1.32,1.32,0,0,0,.11,1.86l.13.1c1.82-.12,4.16-.16,8-.16s6.15,0,8.17.16a1.29,1.29,0,0,0,.37-1.8l-.12-.16-.95-.19a7.91,7.91,0,0,1-3.83-1.28c-1.64-1.29-7.31-9-8.51-10.78a2,2,0,0,1-.47-.95,1.18,1.18,0,0,1,.38-.74,41.07,41.07,0,0,1,4.39-3.28,11.79,11.79,0,0,1,4.38-2l2.07-.39c.46-.44.41-1.71-.27-2a111.64,111.64,0,0,1-12.26.79h-1.55c-.64.23-.73,1.46-.15,2l1.64.23c.57,0,1.23.27,1.23.56s-.32,1-1.57,2.25L243.24,90a5.16,5.16,0,0,1-3.77,1.56c-.71,0-.91-.16-.91-.79V73.07c0-3.55,0-5.92.2-8.23a1.45,1.45,0,0,0-1.11-.39,79.89,79.89,0,0,1-9.92,3.14,1.19,1.19,0,0,0,0,1.69h0l1.09.57c1.31.69,1.31,1.3,1.31,3.57V98.27c0,4-.27,4.38-2.62,4.63l-1.23.12a1.47,1.47,0,0,0,0,2c2.28-.12,4.94-.16,7.94-.16s5.7,0,7.79.16a1.36,1.36,0,0,0,0-1.92l0,0-1-.12c-2.28-.23-2.55-.68-2.55-4.63V95c0-1.08.32-1.36.78-1.36a1.93,1.93,0,0,1,1.63.84l4.61,6.1a6.48,6.48,0,0,1,1.09,1.82c0,.2-.38.3-1,.42"/>
    <path class="cls-1" d="M266.62,105.48a3.4,3.4,0,1,1,3.38-3.41h0a3.4,3.4,0,0,1-3.38,3.4m0-6.13a2.74,2.74,0,1,0,2.72,2.75v0a2.73,2.73,0,0,0-2.72-2.73"/>
    <path class="cls-1" d="M267.25,103.78l-.67-1.23H266v1.23h-.73v-3.45h1.61a1.06,1.06,0,0,1,1.16,1s0,.08,0,.12a1,1,0,0,1-.75,1l.77,1.31Zm.08-2.34a.47.47,0,0,0-.47-.47H266v.94h.77a.47.47,0,0,0,.51-.42s0,0,0,0"/>
  </g>
</svg>
