<?xml version="1.0" standalone="no"?>
<!DOCTYPE svg PUBLIC "-//W3C//DTD SVG 20010904//EN"
 "http://www.w3.org/TR/2001/REC-SVG-20010904/DTD/svg10.dtd">
<svg version="1.0" xmlns="http://www.w3.org/2000/svg"
 width="4000.000000pt" height="4000.000000pt" viewBox="0 0 4000.000000 4000.000000"
 preserveAspectRatio="xMidYMid meet">

<g transform="translate(0.000000,4000.000000) scale(0.100000,-0.100000)"
fill="#000000" stroke="none">
<path d="M17980 21345 l0 -7955 -665 0 -665 0 0 6695 0 6695 -1335 0 -1335 0
0 -8035 0 -8035 3345 0 3345 0 -3 4271 -2 4270 1330 669 c731 368 1333 666
1337 664 4 -3 8 -1659 8 -3680 l0 -3674 1340 0 1340 0 0 8035 0 8035 -1340 0
-1340 0 -2 -3012 -3 -3013 -1335 -671 -1335 -671 -3 3684 -2 3683 -1340 0
-1340 0 0 -7955z"/>
</g>
</svg>
